<mxfile host="Electron" modified="2024-02-21T14:30:32.973Z" agent="Mozilla/5.0 (Windows NT 10.0; Win64; x64) AppleWebKit/537.36 (KHTML, like Gecko) draw.io/22.1.21 Chrome/120.0.6099.109 Electron/28.1.0 Safari/537.36" etag="lR3ZDbiWbzoe8--e1x25" version="22.1.21" type="device">
  <diagram name="Page-1" id="10a91c8b-09ff-31b1-d368-03940ed4cc9e">
    <mxGraphModel dx="1235" dy="731" grid="1" gridSize="10" guides="1" tooltips="1" connect="1" arrows="1" fold="1" page="1" pageScale="1" pageWidth="1100" pageHeight="850" background="none" math="0" shadow="0">
      <root>
        <mxCell id="0" />
        <mxCell id="1" parent="0" />
        <mxCell id="62893188c0fa7362-1" value="tipo" style="whiteSpace=wrap;html=1;rounded=1;shadow=1;labelBackgroundColor=none;strokeWidth=1;fontFamily=Verdana;fontSize=12;align=center;fillColor=#f5f5f5;strokeColor=#666666;fontColor=#333333;glass=0;" parent="1" vertex="1">
          <mxGeometry x="610" y="70" width="120" height="60" as="geometry" />
        </mxCell>
        <mxCell id="62893188c0fa7362-2" value="&lt;span&gt;cliente&lt;/span&gt;" style="whiteSpace=wrap;html=1;rounded=0;shadow=1;labelBackgroundColor=none;strokeWidth=1;fontFamily=Verdana;fontSize=12;align=center;glass=0;gradientColor=none;" parent="1" vertex="1">
          <mxGeometry x="430" y="170" width="120" height="60" as="geometry" />
        </mxCell>
        <mxCell id="62893188c0fa7362-3" value="&lt;span&gt;cassiere&lt;/span&gt;" style="whiteSpace=wrap;html=1;rounded=0;shadow=1;labelBackgroundColor=none;strokeWidth=1;fontFamily=Verdana;fontSize=12;align=center;" parent="1" vertex="1">
          <mxGeometry x="610" y="170" width="120" height="60" as="geometry" />
        </mxCell>
        <mxCell id="62893188c0fa7362-4" value="" style="rounded=0;html=1;labelBackgroundColor=none;startArrow=none;startFill=0;startSize=5;endArrow=none;endFill=0;endSize=5;jettySize=auto;orthogonalLoop=1;strokeWidth=1;fontFamily=Verdana;fontSize=12" parent="1" source="62893188c0fa7362-1" target="62893188c0fa7362-3" edge="1">
          <mxGeometry x="-0.3002" y="13" relative="1" as="geometry">
            <mxPoint as="offset" />
          </mxGeometry>
        </mxCell>
        <mxCell id="62893188c0fa7362-5" value="" style="rounded=0;html=1;labelBackgroundColor=none;startArrow=none;startFill=0;startSize=5;endArrow=none;endFill=0;endSize=5;jettySize=auto;orthogonalLoop=1;strokeWidth=1;fontFamily=Verdana;fontSize=12" parent="1" source="62893188c0fa7362-1" target="62893188c0fa7362-2" edge="1">
          <mxGeometry x="-0.359" y="-11" relative="1" as="geometry">
            <mxPoint as="offset" />
          </mxGeometry>
        </mxCell>
        <mxCell id="62893188c0fa7362-8" value="&lt;span&gt;identificativo&lt;/span&gt;" style="whiteSpace=wrap;html=1;rounded=1;shadow=1;labelBackgroundColor=none;strokeWidth=1;fontFamily=Verdana;fontSize=12;align=center;fillColor=#f5f5f5;strokeColor=#666666;fontColor=#333333;glass=0;" parent="1" vertex="1">
          <mxGeometry x="320" y="280" width="120" height="60" as="geometry" />
        </mxCell>
        <mxCell id="62893188c0fa7362-14" value="" style="rounded=0;html=1;labelBackgroundColor=none;startArrow=none;startFill=0;startSize=5;endArrow=none;endFill=0;endSize=5;jettySize=auto;orthogonalLoop=1;strokeWidth=1;fontFamily=Verdana;fontSize=12" parent="1" source="62893188c0fa7362-2" target="62893188c0fa7362-8" edge="1">
          <mxGeometry x="-0.2" y="-14" relative="1" as="geometry">
            <mxPoint as="offset" />
          </mxGeometry>
        </mxCell>
        <mxCell id="IUx8zPKec_PvIfYe57fg-1" value="&lt;span&gt;catalogo&lt;/span&gt;" style="whiteSpace=wrap;html=1;rounded=0;shadow=1;labelBackgroundColor=none;strokeWidth=1;fontFamily=Verdana;fontSize=12;align=center;" parent="1" vertex="1">
          <mxGeometry x="790" y="170" width="120" height="60" as="geometry" />
        </mxCell>
        <mxCell id="IUx8zPKec_PvIfYe57fg-2" value="" style="rounded=0;html=1;labelBackgroundColor=none;startArrow=none;startFill=0;startSize=5;endArrow=none;endFill=0;endSize=5;jettySize=auto;orthogonalLoop=1;strokeWidth=1;fontFamily=Verdana;fontSize=12;" parent="1" source="62893188c0fa7362-1" target="IUx8zPKec_PvIfYe57fg-1" edge="1">
          <mxGeometry x="-0.3002" y="13" relative="1" as="geometry">
            <mxPoint as="offset" />
            <mxPoint x="712" y="133" as="sourcePoint" />
          </mxGeometry>
        </mxCell>
        <mxCell id="IUx8zPKec_PvIfYe57fg-3" value="&lt;span&gt;comando&lt;/span&gt;" style="whiteSpace=wrap;html=1;rounded=1;shadow=1;labelBackgroundColor=none;strokeWidth=1;fontFamily=Verdana;fontSize=12;align=center;fillColor=#f5f5f5;strokeColor=#666666;fontColor=#333333;glass=0;" parent="1" vertex="1">
          <mxGeometry x="460" y="280" width="120" height="60" as="geometry" />
        </mxCell>
        <mxCell id="IUx8zPKec_PvIfYe57fg-4" value="" style="rounded=0;html=1;labelBackgroundColor=none;startArrow=none;startFill=0;startSize=5;endArrow=none;endFill=0;endSize=5;jettySize=auto;orthogonalLoop=1;strokeWidth=1;fontFamily=Verdana;fontSize=12;exitX=0.75;exitY=1;exitDx=0;exitDy=0;entryX=0.5;entryY=0;entryDx=0;entryDy=0;" parent="1" source="62893188c0fa7362-2" target="IUx8zPKec_PvIfYe57fg-3" edge="1">
          <mxGeometry x="-0.2" y="-14" relative="1" as="geometry">
            <mxPoint as="offset" />
            <mxPoint x="470" y="240" as="sourcePoint" />
            <mxPoint x="420" y="290" as="targetPoint" />
          </mxGeometry>
        </mxCell>
        <mxCell id="IUx8zPKec_PvIfYe57fg-5" value="&lt;span&gt;identificativo&lt;/span&gt;" style="whiteSpace=wrap;html=1;rounded=1;shadow=1;labelBackgroundColor=none;strokeWidth=1;fontFamily=Verdana;fontSize=12;align=center;fillColor=#f5f5f5;strokeColor=#666666;fontColor=#333333;glass=0;" parent="1" vertex="1">
          <mxGeometry x="610" y="280" width="120" height="60" as="geometry" />
        </mxCell>
        <mxCell id="IUx8zPKec_PvIfYe57fg-6" value="" style="rounded=0;html=1;labelBackgroundColor=none;startArrow=none;startFill=0;startSize=5;endArrow=none;endFill=0;endSize=5;jettySize=auto;orthogonalLoop=1;strokeWidth=1;fontFamily=Verdana;fontSize=12;entryX=0.5;entryY=0;entryDx=0;entryDy=0;exitX=0.5;exitY=1;exitDx=0;exitDy=0;" parent="1" source="62893188c0fa7362-3" target="IUx8zPKec_PvIfYe57fg-5" edge="1">
          <mxGeometry x="-0.2" y="-14" relative="1" as="geometry">
            <mxPoint as="offset" />
            <mxPoint x="750" y="230" as="sourcePoint" />
          </mxGeometry>
        </mxCell>
        <mxCell id="IUx8zPKec_PvIfYe57fg-7" value="&lt;span&gt;ingresso&lt;/span&gt;" style="whiteSpace=wrap;html=1;rounded=0;shadow=1;labelBackgroundColor=none;strokeWidth=1;fontFamily=Verdana;fontSize=12;align=center;" parent="1" vertex="1">
          <mxGeometry x="97" y="403" width="85" height="60" as="geometry" />
        </mxCell>
        <mxCell id="IUx8zPKec_PvIfYe57fg-8" value="" style="rounded=0;html=1;labelBackgroundColor=none;startArrow=none;startFill=0;startSize=5;endArrow=none;endFill=0;endSize=5;jettySize=auto;orthogonalLoop=1;strokeWidth=1;fontFamily=Verdana;fontSize=12;entryX=0.5;entryY=0;entryDx=0;entryDy=0;exitX=0.023;exitY=0.956;exitDx=0;exitDy=0;exitPerimeter=0;" parent="1" source="IUx8zPKec_PvIfYe57fg-3" target="IUx8zPKec_PvIfYe57fg-7" edge="1">
          <mxGeometry x="-0.2" y="-14" relative="1" as="geometry">
            <mxPoint as="offset" />
            <mxPoint x="460" y="340" as="sourcePoint" />
            <mxPoint x="470" y="430" as="targetPoint" />
          </mxGeometry>
        </mxCell>
        <mxCell id="IUx8zPKec_PvIfYe57fg-10" value="" style="rounded=0;html=1;labelBackgroundColor=none;startArrow=none;startFill=0;startSize=5;endArrow=none;endFill=0;endSize=5;jettySize=auto;orthogonalLoop=1;strokeWidth=1;fontFamily=Verdana;fontSize=12;exitX=0.25;exitY=1;exitDx=0;exitDy=0;entryX=0.5;entryY=0;entryDx=0;entryDy=0;" parent="1" source="IUx8zPKec_PvIfYe57fg-3" target="IUx8zPKec_PvIfYe57fg-12" edge="1">
          <mxGeometry x="-0.2" y="-14" relative="1" as="geometry">
            <mxPoint as="offset" />
            <mxPoint x="610" y="340" as="sourcePoint" />
            <mxPoint x="470" y="395" as="targetPoint" />
          </mxGeometry>
        </mxCell>
        <mxCell id="IUx8zPKec_PvIfYe57fg-12" value="&lt;span&gt;entra&lt;/span&gt;" style="whiteSpace=wrap;html=1;rounded=0;shadow=1;labelBackgroundColor=none;strokeWidth=1;fontFamily=Verdana;fontSize=12;align=center;" parent="1" vertex="1">
          <mxGeometry x="188" y="403" width="85" height="60" as="geometry" />
        </mxCell>
        <mxCell id="IUx8zPKec_PvIfYe57fg-14" value="" style="rounded=0;html=1;labelBackgroundColor=none;startArrow=none;startFill=0;startSize=5;endArrow=none;endFill=0;endSize=5;jettySize=auto;orthogonalLoop=1;strokeWidth=1;fontFamily=Verdana;fontSize=12;entryX=0.5;entryY=0;entryDx=0;entryDy=0;" parent="1" target="IUx8zPKec_PvIfYe57fg-15" edge="1">
          <mxGeometry x="-0.2" y="-14" relative="1" as="geometry">
            <mxPoint as="offset" />
            <mxPoint x="500" y="340" as="sourcePoint" />
            <mxPoint x="565" y="395" as="targetPoint" />
          </mxGeometry>
        </mxCell>
        <mxCell id="IUx8zPKec_PvIfYe57fg-15" value="&lt;span&gt;aggiungi&lt;/span&gt;" style="whiteSpace=wrap;html=1;rounded=0;shadow=1;labelBackgroundColor=none;strokeWidth=1;fontFamily=Verdana;fontSize=12;align=center;" parent="1" vertex="1">
          <mxGeometry x="278.5" y="403" width="85" height="60" as="geometry" />
        </mxCell>
        <mxCell id="IUx8zPKec_PvIfYe57fg-16" value="&lt;span&gt;payload&lt;/span&gt;" style="whiteSpace=wrap;html=1;rounded=1;shadow=1;labelBackgroundColor=none;strokeWidth=1;fontFamily=Verdana;fontSize=12;align=center;fillColor=#f5f5f5;strokeColor=#666666;fontColor=#333333;glass=0;" parent="1" vertex="1">
          <mxGeometry x="261.5" y="513" width="120" height="60" as="geometry" />
        </mxCell>
        <mxCell id="IUx8zPKec_PvIfYe57fg-17" value="" style="rounded=0;html=1;labelBackgroundColor=none;startArrow=none;startFill=0;startSize=5;endArrow=none;endFill=0;endSize=5;jettySize=auto;orthogonalLoop=1;strokeWidth=1;fontFamily=Verdana;fontSize=12;exitX=0.5;exitY=1;exitDx=0;exitDy=0;entryX=0.5;entryY=0;entryDx=0;entryDy=0;" parent="1" source="IUx8zPKec_PvIfYe57fg-15" target="IUx8zPKec_PvIfYe57fg-16" edge="1">
          <mxGeometry x="-0.2" y="-14" relative="1" as="geometry">
            <mxPoint as="offset" />
            <mxPoint x="339.5" y="463" as="sourcePoint" />
            <mxPoint x="239.5" y="523" as="targetPoint" />
          </mxGeometry>
        </mxCell>
        <mxCell id="IUx8zPKec_PvIfYe57fg-18" value="" style="rounded=0;html=1;labelBackgroundColor=none;startArrow=none;startFill=0;startSize=5;endArrow=none;endFill=0;endSize=5;jettySize=auto;orthogonalLoop=1;strokeWidth=1;fontFamily=Verdana;fontSize=12;entryX=0.5;entryY=0;entryDx=0;entryDy=0;exitX=0.44;exitY=1.005;exitDx=0;exitDy=0;exitPerimeter=0;" parent="1" source="IUx8zPKec_PvIfYe57fg-3" target="IUx8zPKec_PvIfYe57fg-19" edge="1">
          <mxGeometry x="-0.2" y="-14" relative="1" as="geometry">
            <mxPoint as="offset" />
            <mxPoint x="602.5" y="340" as="sourcePoint" />
            <mxPoint x="667.5" y="395" as="targetPoint" />
          </mxGeometry>
        </mxCell>
        <mxCell id="IUx8zPKec_PvIfYe57fg-19" value="&lt;span&gt;esce&lt;/span&gt;" style="whiteSpace=wrap;html=1;rounded=0;shadow=1;labelBackgroundColor=none;strokeWidth=1;fontFamily=Verdana;fontSize=12;align=center;" parent="1" vertex="1">
          <mxGeometry x="369" y="403" width="85" height="60" as="geometry" />
        </mxCell>
        <mxCell id="IUx8zPKec_PvIfYe57fg-20" value="" style="rounded=0;html=1;labelBackgroundColor=none;startArrow=none;startFill=0;startSize=5;endArrow=none;endFill=0;endSize=5;jettySize=auto;orthogonalLoop=1;strokeWidth=1;fontFamily=Verdana;fontSize=12;entryX=0.5;entryY=0;entryDx=0;entryDy=0;exitX=0.132;exitY=0.997;exitDx=0;exitDy=0;exitPerimeter=0;" parent="1" source="IUx8zPKec_PvIfYe57fg-16" target="IUx8zPKec_PvIfYe57fg-21" edge="1">
          <mxGeometry x="-0.2" y="-14" relative="1" as="geometry">
            <mxPoint as="offset" />
            <mxPoint x="289" y="573" as="sourcePoint" />
            <mxPoint x="354" y="628" as="targetPoint" />
          </mxGeometry>
        </mxCell>
        <mxCell id="IUx8zPKec_PvIfYe57fg-21" value="&lt;span&gt;id&lt;/span&gt;" style="whiteSpace=wrap;html=1;rounded=0;shadow=1;labelBackgroundColor=none;strokeWidth=1;fontFamily=Verdana;fontSize=12;align=center;" parent="1" vertex="1">
          <mxGeometry x="179" y="628" width="85" height="60" as="geometry" />
        </mxCell>
        <mxCell id="IUx8zPKec_PvIfYe57fg-22" value="" style="rounded=0;html=1;labelBackgroundColor=none;startArrow=none;startFill=0;startSize=5;endArrow=none;endFill=0;endSize=5;jettySize=auto;orthogonalLoop=1;strokeWidth=1;fontFamily=Verdana;fontSize=12;entryX=0.5;entryY=0;entryDx=0;entryDy=0;exitX=0.5;exitY=1;exitDx=0;exitDy=0;" parent="1" source="IUx8zPKec_PvIfYe57fg-16" target="IUx8zPKec_PvIfYe57fg-23" edge="1">
          <mxGeometry x="-0.2" y="-14" relative="1" as="geometry">
            <mxPoint as="offset" />
            <mxPoint x="389" y="573" as="sourcePoint" />
            <mxPoint x="454" y="628" as="targetPoint" />
          </mxGeometry>
        </mxCell>
        <mxCell id="IUx8zPKec_PvIfYe57fg-23" value="&lt;span&gt;nome prodotto&lt;/span&gt;" style="whiteSpace=wrap;html=1;rounded=0;shadow=1;labelBackgroundColor=none;strokeWidth=1;fontFamily=Verdana;fontSize=12;align=center;" parent="1" vertex="1">
          <mxGeometry x="279" y="628" width="85" height="60" as="geometry" />
        </mxCell>
        <mxCell id="IUx8zPKec_PvIfYe57fg-24" value="" style="rounded=0;html=1;labelBackgroundColor=none;startArrow=none;startFill=0;startSize=5;endArrow=none;endFill=0;endSize=5;jettySize=auto;orthogonalLoop=1;strokeWidth=1;fontFamily=Verdana;fontSize=12;entryX=0.5;entryY=0;entryDx=0;entryDy=0;exitX=0.899;exitY=1.008;exitDx=0;exitDy=0;exitPerimeter=0;" parent="1" source="IUx8zPKec_PvIfYe57fg-16" target="IUx8zPKec_PvIfYe57fg-25" edge="1">
          <mxGeometry x="-0.2" y="-14" relative="1" as="geometry">
            <mxPoint as="offset" />
            <mxPoint x="451.5" y="573" as="sourcePoint" />
            <mxPoint x="516.5" y="628" as="targetPoint" />
          </mxGeometry>
        </mxCell>
        <mxCell id="IUx8zPKec_PvIfYe57fg-25" value="&lt;span&gt;prezzo&lt;/span&gt;" style="whiteSpace=wrap;html=1;rounded=0;shadow=1;labelBackgroundColor=none;strokeWidth=1;fontFamily=Verdana;fontSize=12;align=center;" parent="1" vertex="1">
          <mxGeometry x="381.5" y="628" width="85" height="60" as="geometry" />
        </mxCell>
        <mxCell id="IUx8zPKec_PvIfYe57fg-26" value="" style="rounded=0;html=1;labelBackgroundColor=none;startArrow=none;startFill=0;startSize=5;endArrow=none;endFill=0;endSize=5;jettySize=auto;orthogonalLoop=1;strokeWidth=1;fontFamily=Verdana;fontSize=12;entryX=0.5;entryY=0;entryDx=0;entryDy=0;exitX=0.611;exitY=1.002;exitDx=0;exitDy=0;exitPerimeter=0;" parent="1" source="IUx8zPKec_PvIfYe57fg-3" target="IUx8zPKec_PvIfYe57fg-27" edge="1">
          <mxGeometry x="-0.2" y="-14" relative="1" as="geometry">
            <mxPoint as="offset" />
            <mxPoint x="710" y="340" as="sourcePoint" />
            <mxPoint x="775" y="395" as="targetPoint" />
          </mxGeometry>
        </mxCell>
        <mxCell id="IUx8zPKec_PvIfYe57fg-27" value="&lt;span&gt;stampa&lt;/span&gt;" style="whiteSpace=wrap;html=1;rounded=0;shadow=1;labelBackgroundColor=none;strokeWidth=1;fontFamily=Verdana;fontSize=12;align=center;" parent="1" vertex="1">
          <mxGeometry x="459.5" y="403" width="85" height="60" as="geometry" />
        </mxCell>
        <mxCell id="IUx8zPKec_PvIfYe57fg-28" value="" style="rounded=0;html=1;labelBackgroundColor=none;startArrow=none;startFill=0;startSize=5;endArrow=none;endFill=0;endSize=5;jettySize=auto;orthogonalLoop=1;strokeWidth=1;fontFamily=Verdana;fontSize=12;entryX=0.5;entryY=0;entryDx=0;entryDy=0;exitX=0.708;exitY=1.004;exitDx=0;exitDy=0;exitPerimeter=0;" parent="1" target="IUx8zPKec_PvIfYe57fg-29" edge="1" source="IUx8zPKec_PvIfYe57fg-3">
          <mxGeometry x="-0.2" y="-14" relative="1" as="geometry">
            <mxPoint as="offset" />
            <mxPoint x="560" y="340" as="sourcePoint" />
            <mxPoint x="818" y="395" as="targetPoint" />
          </mxGeometry>
        </mxCell>
        <mxCell id="IUx8zPKec_PvIfYe57fg-29" value="&lt;span&gt;rimuovi&lt;/span&gt;" style="whiteSpace=wrap;html=1;rounded=0;shadow=1;labelBackgroundColor=none;strokeWidth=1;fontFamily=Verdana;fontSize=12;align=center;" parent="1" vertex="1">
          <mxGeometry x="550" y="403" width="85" height="60" as="geometry" />
        </mxCell>
        <mxCell id="IUx8zPKec_PvIfYe57fg-30" value="" style="rounded=0;html=1;labelBackgroundColor=none;startArrow=none;startFill=0;startSize=5;endArrow=none;endFill=0;endSize=5;jettySize=auto;orthogonalLoop=1;strokeWidth=1;fontFamily=Verdana;fontSize=12;entryX=0.5;entryY=0;entryDx=0;entryDy=0;exitX=0.843;exitY=1;exitDx=0;exitDy=0;exitPerimeter=0;" parent="1" source="IUx8zPKec_PvIfYe57fg-3" target="IUx8zPKec_PvIfYe57fg-31" edge="1">
          <mxGeometry x="-0.2" y="-14" relative="1" as="geometry">
            <mxPoint as="offset" />
            <mxPoint x="843" y="340" as="sourcePoint" />
            <mxPoint x="908" y="395" as="targetPoint" />
          </mxGeometry>
        </mxCell>
        <mxCell id="IUx8zPKec_PvIfYe57fg-31" value="coda" style="whiteSpace=wrap;html=1;rounded=0;shadow=1;labelBackgroundColor=none;strokeWidth=1;fontFamily=Verdana;fontSize=12;align=center;" parent="1" vertex="1">
          <mxGeometry x="640" y="403" width="85" height="60" as="geometry" />
        </mxCell>
        <mxCell id="IUx8zPKec_PvIfYe57fg-32" value="&lt;span&gt;payload&lt;/span&gt;" style="whiteSpace=wrap;html=1;rounded=1;shadow=1;labelBackgroundColor=none;strokeWidth=1;fontFamily=Verdana;fontSize=12;align=center;fillColor=#f5f5f5;strokeColor=#666666;fontColor=#333333;glass=0;" parent="1" vertex="1">
          <mxGeometry x="532.5" y="513" width="120" height="60" as="geometry" />
        </mxCell>
        <mxCell id="IUx8zPKec_PvIfYe57fg-35" value="" style="rounded=0;html=1;labelBackgroundColor=none;startArrow=none;startFill=0;startSize=5;endArrow=none;endFill=0;endSize=5;jettySize=auto;orthogonalLoop=1;strokeWidth=1;fontFamily=Verdana;fontSize=12;entryX=0.5;entryY=0;entryDx=0;entryDy=0;exitX=0.5;exitY=1;exitDx=0;exitDy=0;" parent="1" source="IUx8zPKec_PvIfYe57fg-32" target="IUx8zPKec_PvIfYe57fg-36" edge="1">
          <mxGeometry x="-0.2" y="-14" relative="1" as="geometry">
            <mxPoint as="offset" />
            <mxPoint x="660" y="573" as="sourcePoint" />
            <mxPoint x="725" y="628" as="targetPoint" />
          </mxGeometry>
        </mxCell>
        <mxCell id="IUx8zPKec_PvIfYe57fg-36" value="&lt;span&gt;id&lt;/span&gt;" style="whiteSpace=wrap;html=1;rounded=0;shadow=1;labelBackgroundColor=none;strokeWidth=1;fontFamily=Verdana;fontSize=12;align=center;" parent="1" vertex="1">
          <mxGeometry x="550" y="628" width="85" height="60" as="geometry" />
        </mxCell>
        <mxCell id="IUx8zPKec_PvIfYe57fg-39" value="" style="rounded=0;html=1;labelBackgroundColor=none;startArrow=none;startFill=0;startSize=5;endArrow=none;endFill=0;endSize=5;jettySize=auto;orthogonalLoop=1;strokeWidth=1;fontFamily=Verdana;fontSize=12;exitX=0.5;exitY=1;exitDx=0;exitDy=0;entryX=0.5;entryY=0;entryDx=0;entryDy=0;" parent="1" source="IUx8zPKec_PvIfYe57fg-29" target="IUx8zPKec_PvIfYe57fg-32" edge="1">
          <mxGeometry x="-0.2" y="-14" relative="1" as="geometry">
            <mxPoint as="offset" />
            <mxPoint x="592" y="463" as="sourcePoint" />
            <mxPoint x="593" y="513" as="targetPoint" />
          </mxGeometry>
        </mxCell>
        <mxCell id="38ntKLoxAyE0hefmShyk-1" value="" style="rounded=0;html=1;labelBackgroundColor=none;startArrow=none;startFill=0;startSize=5;endArrow=none;endFill=0;endSize=5;jettySize=auto;orthogonalLoop=1;strokeWidth=1;fontFamily=Verdana;fontSize=12;entryX=0.5;entryY=0;entryDx=0;entryDy=0;exitX=0.974;exitY=0.957;exitDx=0;exitDy=0;exitPerimeter=0;" edge="1" parent="1" target="38ntKLoxAyE0hefmShyk-2" source="IUx8zPKec_PvIfYe57fg-3">
          <mxGeometry x="-0.2" y="-14" relative="1" as="geometry">
            <mxPoint as="offset" />
            <mxPoint x="580" y="340" as="sourcePoint" />
            <mxPoint x="997.5" y="395" as="targetPoint" />
          </mxGeometry>
        </mxCell>
        <mxCell id="38ntKLoxAyE0hefmShyk-2" value="&lt;span&gt;paga&lt;/span&gt;" style="whiteSpace=wrap;html=1;rounded=0;shadow=1;labelBackgroundColor=none;strokeWidth=1;fontFamily=Verdana;fontSize=12;align=center;" vertex="1" parent="1">
          <mxGeometry x="729.5" y="403" width="85" height="60" as="geometry" />
        </mxCell>
      </root>
    </mxGraphModel>
  </diagram>
</mxfile>
